<?xml version="1.0" encoding="utf-8"?>
<!-- Generator: Adobe Illustrator 19.0.1, SVG Export Plug-In . SVG Version: 6.00 Build 0)  -->
<svg version="1.1" baseProfile="tiny" id="Слой_1"
	 xmlns="http://www.w3.org/2000/svg" xmlns:xlink="http://www.w3.org/1999/xlink" x="0px" y="0px" viewBox="0 0 595.3 362"
	 xml:space="preserve">
<path d="M62.2,33.7c0,0-2.5,2.2-5.4,13.1c-2.9,10.9,0,14.6,0,14.6s-3.1,11.1-1.3,12.8s0.4-0.2,3.1,5.7S57,85.6,57,85.6
	s0.2,8.2,0,8.9c-0.2,0.7,2.9,4.4,2.9,4.4s0.5,6.7,2.3,7.4c1.8,0.7,3.4,5.9,3.4,5.9l-1.1,15.8c0,0,0.2,3,2.5,3s7.9,0,7.9,0l1.8,2v9.1
	c0,0,5.4,13.8,11.1,17c5.7,3.2,4.3-5.9,4.3-5.9l1.6,2.7c-0.7-6.4-0.7-6.4-0.7-6.4l2.3,2c0,0,1.4-3.5,0-5.4s-1.4-2-1.4-2l3.4,1.5
	c0,0,1.4-5.4,0-5.9c-1.4-0.5,2-1.7,2-1.7v-4.7l1.6-3.2l8.4,0.5c0,0,11.8,5.2,12.9,13.6c1.1,8.4,15.9,25.9,25.4,30.1l2.9,1.7
	c0,0-3.4-0.5,0,5.4c3.4,5.9,3.2,14.1,3.2,14.1l0-6.9l2.5,17c0,0-2,6.2-2,6.9c0,0.7-1.6,8.6-1.6,8.6l-4.8,6.9l-4.1,2l-4.1,6.2
	l-0.9,5.2c0,0,12.2,4.4,13.6,0c1.4-4.4,1.4-7.7,1.4-7.7l3.6-3.7l6.4-2l1.8-9.1l1.1-6.9l6.6-21.7v-5.4l7.9,1.5l7.9,7.2v9.1l-1.1,12.1
	l-5,10.6l-2.6,9l-4.1,5.3l4.8,2.4c1.6,0.8,6,0.8,7-0.6l1.5-3.2l5.9-9.3l3.2-11.4l4.5-18l2.5-13.8v-5.9l28.3-1l5.9,12.1l17.5,22.7
	l1.6,8.9l-7.9,6.9c0,0-0.5,4.4-0.5,5.4s-1.6,5.9-0.9,5.9c0.7,0,9.3,0.5,9.3,0.5l5.9-14.6l3.9-6.2l-6.8-24.2l0.5-12.4l7.3-3.5
	l3.2-0.7l7.3,11.9c0,0,3.9,14.8,4.1,15.6c0.2,0.7,0,13.1,0,13.1l-5.9,7.9c0,0-2.9,6.2-2.9,7.2s-0.5,8.2-0.5,8.2h12.5v-11.9l5-4.7
	v-17.5l2.3-11.1l-3.6-10.9c0,0-0.2-16.3,0.5-17.3c0.7-1,6.4-23,6.4-23l-8.4-35.1l-14.7-21.5l-50.3-29.9L211,52.7l-17.2-28.4
	l-36.1-19h-12.5l-10.2,2l-4.8,4.2L130,14l-4.5,2l-4.5,3.5l-5.2,8.6l-0.5,5.2l-2.5,2l-4.3-1l-5.2-1l-6.8-7.4l-2.3-2l-2.5,2.5l0.5,5.9
	l2.3,5.2h-1.6l-2,2.7l-4.8,2l-5-2l-4.5,1l-3.9,0.5l-4.8,1l-1.8,0.7h-1.8L64,38.2l0.5-3L62.2,33.7z"/>
<g>
	<path d="M388.1,137.4l-37,50.8l-6.6,38.8h-26.7l6.7-40.1l-21.1-49.5h28.3l9.4,24.9c0.7,1.7,1.4,3.6,2,5.9l4.5-7l16-23.9H388.1z"/>
	<path d="M419.1,208.7h-24l-8.4,18.3h-22.2l41.5-89.6h28.1l13.9,89.6h-26.4L419.1,208.7z M417.5,190.2l-3.6-25.9l-11.8,25.9H417.5z"
		/>
	<path d="M517.5,171.4l17.1,55.6h-26.4l-10.1-37l-13.6,15.2l-3.6,21.9h-25l15-89.6h25l-6.9,41.2c1.4-3.4,3.6-6.8,6.5-10.1
		c2.9-3.3,7.5-8.9,13.9-16.6l12.8-14.4h25.6L517.5,171.4z"/>
</g>
<g>
	<path fill="#D24A43" d="M47.6,350.9l15-89.6h29.9c7.2,0,13.1,0.5,17.6,1.6c4.5,1.1,8.8,3.3,13,6.8c4.2,3.5,7.4,8,9.5,13.4
		c2.1,5.4,3.2,11.5,3.2,18.4c0,8.8-1.6,16.8-4.9,23.8c-3.3,7-7.6,12.6-13,16.8s-10.7,6.7-15.8,7.6c-5.1,0.9-12.4,1.3-21.6,1.3H47.6z
		 M77.8,330.8h6c6.3,0,11-0.9,14-2.7c3-1.8,5.6-5.1,7.8-10c2.2-4.9,3.3-10.7,3.3-17.6c0-13.2-5-19.8-15-19.8h-7.7L77.8,330.8z"/>
	<path fill="#D24A43" d="M209.3,330.2l-3.5,20.6h-66.1l15-89.6h64.4l-3.3,19.6h-38.4l-2.3,14.1h32.3l-3.3,19.4h-32.2l-2.6,15.9
		H209.3z"/>
	<path fill="#D24A43" d="M298.4,282l-23,5.8c-0.7-2.7-2.3-4.8-4.9-6.3c-2.6-1.5-5.5-2.3-8.7-2.3c-5.9,0-8.9,2-8.9,5.9
		c0,1.3,0.4,2.4,1.2,3.3s3.2,2.1,7,3.4l14.2,5.1c3.7,1.3,7.2,3.3,10.4,5.8c3.2,2.6,5.5,5.4,6.9,8.4c1.4,3,2.1,6.3,2.1,9.7
		c0,9.1-3.6,16.5-10.7,22.4s-16.6,8.9-28.5,8.9c-10.2,0-19-2.1-26.6-6.2c-7.6-4.1-12.8-10.4-15.8-18.8l25.9-5.1
		c2.2,6.3,7.7,9.5,16.5,9.5c3.7,0,6.3-0.7,8-2c1.6-1.3,2.5-2.9,2.5-4.6c0-1.1-0.3-2.1-1-2.9c-0.6-0.8-1.3-1.4-2-1.8
		c-0.7-0.4-4.1-1.7-10.2-3.9c-8.2-3-14-5.4-17.3-7.2c-3.3-1.8-6.1-4.4-8.3-7.9c-2.2-3.5-3.3-7.6-3.3-12.3c0-8.2,3-15.1,9-20.8
		c6-5.7,15.2-8.5,27.6-8.5c9.5,0,17.6,2,24.3,6C291.8,269.7,296.2,275.2,298.4,282z"/>
	<path fill="#D24A43" d="M340.2,261.2l-15,89.6h-25.5l15-89.6H340.2z"/>
	<path fill="#D24A43" d="M386.6,301.7h39.5l-8.2,49.1h-13l-0.8-9.8c-5.1,7.7-13.2,11.6-24.3,11.6c-8.1,0-14.8-1.8-19.9-5.3
		c-5.1-3.5-9.1-8-12-13.6c-2.8-5.5-4.2-12-4.2-19.5c0-15.1,4.3-28,12.8-38.9c8.5-10.9,19.9-16.3,34.1-16.3
		c20.1,0,32.7,9.6,37.8,28.8l-24.6,4c-1.7-8-6.2-11.9-13.5-11.9c-6.6,0-11.3,4.1-14.1,12.2c-2.8,8.1-4.3,16.1-4.3,23.9
		c0,10.4,4.1,15.6,12.4,15.6c6.5,0,11-3.7,13.8-11.1h-14.7L386.6,301.7z"/>
	<path fill="#D24A43" d="M523.3,261.2l-15,89.6h-19.9l-17.2-34.4c-4.7-9.4-7.6-16.9-8.9-22.3c0.1,1.3,0.1,2.3,0.1,3.1
		c0,2.5-0.3,5.7-1,9.7l-7.4,43.9h-21.8l15-89.6h24.1l9.8,20.7c6.8,14.4,11.3,25,13.3,31.8c-0.1-1.8-0.2-3.1-0.2-4
		c0-2.5,0.6-7.4,1.8-14.6l5.7-34H523.3z"/>
</g>
<g>
</g>
<g>
</g>
<g>
</g>
<g>
</g>
<g>
</g>
<g>
</g>
</svg>
